<?xml version="1.0" standalone="no"?> <!DOCTYPE svg PUBLIC "-//W3C//DTD SVG 1.0//EN" "http://www.w3.org/TR/2001/REC-SVG-20010904/DTD/svg10.dtd" > <svg xmlns="http://www.w3.org/2000/svg" width="100%" height="100%">
<defs >
<font id="vevey" horiz-adv-x="282" ><font-face
    font-family="Vevey"
    units-per-em="1000"
    panose-1="0 0 0 0 0 0 0 0 0 0"
    ascent="750"
    descent="-250"
    alphabetic="0" />
<missing-glyph horiz-adv-x="500" />
<glyph unicode=" " glyph-name="space" horiz-adv-x="158" />
<glyph unicode="!" glyph-name="exclam" horiz-adv-x="126" d="M28 89H97V0H28V89ZM28 747H97V378L81 167H44L28 378V747Z" />
<glyph unicode="&quot;" glyph-name="quotedbl" horiz-adv-x="208" d="M24 658V747H93V657L64 567H28L49 658H24ZM119 658V747H188V657L159 567H123L144 658H119Z" />
<glyph unicode="#" glyph-name="numbersign" horiz-adv-x="462" d="M254 258H178L136 0H96L138 258H67V311H147L176 485H92V538H184L219 746H260L225 538H300L335 746H376L341 538H403V485H332L303 311H378V258H294L252 0H212L254 258ZM187 311H263L292 485H216L187 311Z" />
<glyph unicode="$" glyph-name="dollar" horiz-adv-x="340" d="M189 844V757Q244 754 273 728T303 644V564H227V644Q227 685 216 702T175 722H163Q135 720 124 701T113 644V546Q113 520 116 508T122 491Q134 475 145 461T167 433T192 402T221 367Q244 340 259
321T283 287T296 256T301 222T303 176T303 111Q303 46 272 21T192 -8V-96H154V-8Q103 -4 71 24T39 106V223H114V108Q114 81 118 66T129 42T147 31T171 28Q185 28 196 30T214 41T224 66T228 108V224Q228 241 208 269T162 329T110 389T71 437Q65 446 59 453T49 474T41
509T38 569V645Q38 664 45 683T66 717T101 743T151 757V844H189Z" />
<glyph unicode="%" glyph-name="percent" horiz-adv-x="335" d="M235 782H274L100 -37H62L235 782ZM134 713Q135 709 136 701T137 682T138 662T138 643V494Q138 483 138 475T134 461Q121 436 84 436Q49 436 35 461Q32 467 32 475T31 494V643Q31 651 31 661T31
682T32 700T35 713Q40 730 53 739T85 749Q103 749 116 740T134 713ZM62 698Q62 646 62 594T61 487Q61 471 65 461T84 451H85Q102 451 105 464T108 511V697Q108 714 105 724T85 734H84Q69 734 66 725T62 698ZM297 276Q298 272 299 264T300 245T301 225T301 206V57Q301
46 301 38T297 24Q284 -1 247 -1Q212 -1 198 24Q195 30 195 38T194 57V206Q194 214 194 224T194 245T195 263T198 276Q203 293 216 302T248 312Q266 312 279 303T297 276ZM225 261Q225 209 225 157T224 50Q224 34 228 24T247 14H248Q265 14 268 27T271 74V260Q271
277 268 287T248 297H247Q232 297 229 288T225 261Z" />
<glyph unicode="&amp;" glyph-name="ampersand" horiz-adv-x="451" d="M33 280Q33 306 39 324T58 357T88 387T127 422Q79 505 75 616Q75 696 105 726T194 756Q231 756 255 748T292 722T309 677T314 612Q313 507 207 429Q227 393 239 370T260 327T278 292T299 254L297
420H333V194L430 0H353L313 84Q309 74 300 58T275 27T237 0T185 -11Q160 -11 134 -6T86 14T50 54T33 121V280ZM152 390Q142 380 135 373T124 360T116 346T112 330Q110 315 110 298T111 263L112 118Q112 103 114 87T124 57T146 34T182 25Q210 25 231 39T265 73T284
112T285 140L152 390ZM241 610Q241 627 242 647T240 684T226 712T194 723Q176 723 168 717T156 697T152 664T153 616Q153 587 155 567T161 530T173 497T190 460Q206 467 216 484T231 524T239 570T241 610Z" />
<glyph unicode="&apos;" glyph-name="quotesingle" horiz-adv-x="116" d="M24 658V747H93V657L64 567H28L49 658H24Z" />
<glyph unicode="(" glyph-name="parenleft" horiz-adv-x="223" d="M133 -154Q116 -130 102 -80T78 34T61 166T55 300Q55 363 60 432T75 564T99 676T133 748H162Q149 727 138 685T120 585T108 460T103 321T105 178T116 44T134 -70T162 -154H133Z" />
<glyph unicode=")" glyph-name="parenright" horiz-adv-x="223" d="M55 -154Q71 -122 82 -71T101 44T111 178T114 320T109 460T98 585T79 684T55 748H84Q103 725 117 676T142 565T157 433T162 300Q162 236 156 167T140 34T115 -79T84 -154H55Z" />
<glyph unicode="*" glyph-name="asterisk" horiz-adv-x="223" d="M92 695V750H124V694L171 722L187 696L139 666L187 636L172 610L124 639V585H92V638L47 610L31 636L79 666L31 696L47 722L92 695Z" />
<glyph unicode="+" glyph-name="plus" horiz-adv-x="262" d="M248 432V379H13V432H248ZM103 523H156V288H103V523Z" />
<glyph unicode="," glyph-name="comma" horiz-adv-x="123" d="M53 0H28V89H97V-1L68 -91H32L53 0V0Z" />
<glyph unicode="-" glyph-name="hyphen" horiz-adv-x="230" d="M204 380V327H24V380H204Z" />
<glyph unicode="." glyph-name="period" horiz-adv-x="125" d="M28 89H97V0H28V89Z" />
<glyph unicode="/" glyph-name="slash" horiz-adv-x="365" d="M244 820H298L108 -66H55L244 820Z" />
<glyph unicode="0" glyph-name="zero" horiz-adv-x="340" d="M292 669Q295 658 297 638T300 594T301 544T302 498V131Q302 106 301 86T292 51Q276 20 245 5T170 -11Q128 -11 97 4T49 51Q42 65 41 85T39 131V498Q39 518 39 543T41 593T44 638T49 669Q61 709 92
733T171 757Q216 757 248 733T292 669ZM114 633Q114 505 114 377T113 114Q113 94 114 78T122 50T139 32T170 25H171Q192 25 203 32T220 57T226 102T227 172V630Q227 671 218 696T171 721H170Q151 721 140 715T123 697T116 669T114 633Z" />
<glyph unicode="1" glyph-name="one" horiz-adv-x="286" d="M49 0V38H113V698L60 636L32 663L113 747H190V38H249V0H49Z" />
<glyph unicode="2" glyph-name="two" horiz-adv-x="340" d="M40 0Q40 54 42 88T48 146T60 189T80 231Q99 271 125 308T174 383T214 461T230 546V641Q230 682 218 700T174 719Q142 719 129 702T116 641V544H40V641Q40 703 74 729T173 755Q206 755 231 745T272 720T297
684T305 642V544Q305 497 288 455T246 374T192 297T137 218Q132 210 125 197T112 165T102 124T99 74H306L307 0H40V0Z" />
<glyph unicode="3" glyph-name="three" horiz-adv-x="340" d="M168 421Q190 421 202 429T221 458T229 513T231 600Q231 625 230 647T224 684T207 709T174 718Q142 716 129 696T115 640V560H39V640Q39 661 49 681T77 717T120 744T174 754Q198 754 221 748T262 727T292
687T304 622V540Q306 408 227 403Q242 401 256 395T281 376T299 341T306 282V123Q306 81 294 56T262 16T219 -2T173 -7Q139 -7 114 3T72 29T47 65T39 107V193H115V107Q115 70 125 50T169 28Q231 28 231 120L232 265Q232 286 232 307T226 345T208 372T170 383H130V421H168V421Z"
/>
<glyph unicode="4" glyph-name="four" horiz-adv-x="330" d="M250 135V0H173V135H27V212L173 747V748H250V212H293V135H250ZM173 212V596L68 212H173Z" />
<glyph unicode="5" glyph-name="five" horiz-adv-x="340" d="M50 328Q56 400 59 455T64 557T67 650T73 747H302V669H115L106 439Q109 440 112 443T122 451T139 459T169 463Q196 463 220 457T263 435T292 392T303 324V91Q303 74 295 56T271 23T230 -1T172 -11Q125
-11 96 6T51 54Q46 64 44 79T40 114T38 153T38 193H113Q113 163 113 133T116 79T131 40T169 25Q201 25 214 38T227 93L229 307Q229 328 229 349T223 387T205 414T167 425Q135 425 122 410T101 360L96 328H50Z" />
<glyph unicode="6" glyph-name="six" horiz-adv-x="340" d="M174 463Q201 463 225 457T267 435T295 392T305 324V91Q305 74 297 56T273 23T232 -1T174 -11Q127 -11 98 6T53 54Q43 74 42 106T40 178V325V332V498Q40 518 40 544T39 596T40 643T45 676Q57 716 90
736T171 757Q205 757 230 747T272 721T297 685T305 643V563H229V643Q229 681 218 701T171 721Q138 721 127 702T116 643Q116 614 116 561T115 447Q122 449 134 456T174 463ZM231 307Q231 328 231 349T225 387T207 414T169 425Q137 425 127 405T115 360V172Q115
142 115 115T118 68T133 37T171 25Q203 25 216 38T229 93L231 307Z" />
<glyph unicode="7" glyph-name="seven" horiz-adv-x="340" d="M220 708H40V747H307L121 -2H45L220 708Z" />
<glyph unicode="8" glyph-name="eight" horiz-adv-x="336" d="M169 -9Q146 -9 123 -6T79 10T47 49T34 121V295Q34 338 42 364T63 404T88 424T113 432Q37 454 37 569V605Q37 642 47 670T75 718T115 746T164 756Q192 756 217 748T261 721T291 675T302 606V569Q303
454 226 432Q237 430 250 425T276 405T296 365T305 295V121Q305 75 291 49T256 10T212 -6T169 -9ZM174 412H170Q145 412 133 402T115 374T109 336T108 294L109 118Q109 75 122 52T168 26H171Q203 28 216 51T230 118L231 294Q231 314 231 334T226 371T209 399T175
412H174ZM229 602Q229 633 228 655T220 692T202 714T169 723Q148 722 136 715T119 693T112 656T110 602Q110 553 112 524T121 479T139 457T169 450Q188 451 199 457T217 479T226 524T229 602Z" />
<glyph unicode="9" glyph-name="nine" horiz-adv-x="340" d="M168 283Q141 283 117 289T75 311T47 354T37 422V655Q37 671 45 689T69 722T110 747T168 757Q215 757 244 740T289 692Q299 672 300 640T302 568V421V414V248Q302 228 302 202T303 150T302 102T297
70Q285 30 252 10T171 -11Q137 -11 112 -1T70 25T45 61T37 103V183H113V103Q113 65 124 45T171 25Q204 25 215 44T226 103Q226 132 226 185T227 299Q220 297 208 290T168 283ZM111 439Q111 418 111 397T117 359T135 332T173 321Q205 321 215 341T227 386V574Q227
604 227 631T224 678T208 709T171 721Q139 721 126 708T113 653L111 439Z" />
<glyph unicode=":" glyph-name="colon" horiz-adv-x="127" d="M28 491H97V402H28V491ZM28 88H97V-1H28V88Z" />
<glyph unicode=";" glyph-name="semicolon" horiz-adv-x="124" d="M28 0V89H97V-1L68 -91H32L53 0H28ZM28 491H97V402H28V491Z" />
<glyph unicode="&lt;" glyph-name="less" horiz-adv-x="488" d="M58 425L428 623V558L124 402L428 247V184L58 384V425Z" />
<glyph unicode="=" glyph-name="equal" horiz-adv-x="262" d="M248 374V321H13V374H248ZM248 489V436H13V489H248Z" />
<glyph unicode="&gt;" glyph-name="greater" horiz-adv-x="488" d="M428 384L58 184V247L362 402L58 558V623L428 425V384Z" />
<glyph unicode="?" glyph-name="question" horiz-adv-x="351" d="M149 89H218V0H149V89ZM158 294Q157 332 169 365T197 429T226 488T239 546V641Q239 682 227 702T183 723Q151 723 138 704T125 641V544H49V641Q49 703 83 731T182 759Q215 759 240 749T281 722T306
684T314 642V544Q314 512 297 481T260 420T222 358T203 296L200 163H162L158 294Z" />
<glyph unicode="@" glyph-name="at" horiz-adv-x="565" d="M169 384Q180 452 202 493T250 551T304 562T353 531L359 559L416 558L367 284Q361 252 368 235T390 216T424 229T462 278Q471 294 477 316T488 362T495 409T498 453Q498 525 485 575T446 656T384 702T304
717Q252 717 208 683T132 592T81 466T63 323Q63 251 79 199T120 112T177 58T240 33Q273 27 300 30T352 44T397 68T436 98L457 72Q410 33 357 12T236 3Q199 10 162 30T96 89T49 184T30 322Q30 403 51 479T109 615T196 711T305 748Q355 748 396 731T467 676T513 580T530
441Q530 394 521 353T495 276Q472 227 443 206T387 181T340 189T313 219Q291 193 261 184T205 190T168 253T169 384ZM299 522Q283 521 263 489T227 378Q217 306 225 268T249 222T283 230T310 287L342 466Q347 493 333 508T299 522Z" />
<glyph unicode="A" glyph-name="A" horiz-adv-x="303" d="M194 748L287 -1H217L200 137H80L60 -1H19L102 748H194ZM132 636L82 176H194L139 636H132Z" />
<glyph unicode="B" glyph-name="B" horiz-adv-x="340" d="M39 -1V418H40V749H147Q184 749 212 743T258 722T286 682T295 618V540Q297 408 226 403Q241 401 255 395T280 376T298 341T305 282V129Q305 80 292 54T258 15T213 1T167 -1H39ZM116 383V34H168Q230 34
230 126L231 265Q231 286 231 307T225 345T207 372T169 383H116ZM159 421Q181 421 193 429T212 457T220 510T222 596Q222 621 221 643T215 680T198 705T165 714H117V421H159Z" />
<glyph unicode="C" glyph-name="C" horiz-adv-x="340" d="M224 643Q224 681 213 701T166 721Q133 721 122 702T111 643Q111 616 111 576T111 478T110 345T110 172Q110 142 110 115T113 68T128 37T166 25Q198 25 211 38T224 93V202H300V91Q300 74 292 56T268 23T227
-1T169 -11Q122 -11 93 6T48 54Q38 74 37 106T35 178V498Q35 518 35 544T34 596T35 643T40 676Q52 716 85 736T166 757Q200 757 225 747T267 721T292 685T300 643V563H224V643Z" />
<glyph unicode="D" glyph-name="D" horiz-adv-x="340" d="M36 -2V748H185Q203 748 224 743T262 725T290 693T302 645V128Q302 83 287 57T249 18T205 2T169 -2H36ZM113 713V33H170Q194 33 210 52T227 109V152Q227 169 227 205T227 285T227 378T228 470T228 547T228
595Q228 620 228 642T223 679T209 704T180 713H113Z" />
<glyph unicode="E" glyph-name="E" horiz-adv-x="247" d="M27 747H229V708H105V418H220V380H105L106 38H228V0H28L27 747Z" />
<glyph unicode="F" glyph-name="F" horiz-adv-x="262" d="M42 747H244V708H120V420H235V382H120Q122 279 122 186T121 0H43L42 747Z" />
<glyph unicode="G" glyph-name="G" horiz-adv-x="341" d="M160 420H305V103Q305 79 299 59T278 23T238 -2T173 -11Q141 -11 121 -7T88 4T66 24T50 51Q40 71 40 105T40 178V498Q40 518 40 543T42 593T45 638T50 669Q62 709 94 733T170 757Q204 757 229 748T272
724T297 688T305 643V563H230V642Q230 689 217 705T171 721Q147 721 135 711T119 682T114 640T115 587V172Q115 142 115 115T118 68T135 37T173 25Q205 25 217 38T229 93V382H160V420Z" />
<glyph unicode="H" glyph-name="H" horiz-adv-x="360" d="M127 747V419H238V747H315V0H238V381H127V0H50L49 747H127Z" />
<glyph unicode="I" glyph-name="I" horiz-adv-x="159" d="M41 748H118V-2H41V748Z" />
<glyph unicode="J" glyph-name="J" horiz-adv-x="338" d="M98 172Q98 157 98 143T97 114Q97 94 98 78T106 50T123 32T154 25H155Q176 25 187 32T204 57T210 102T211 172V747H286V745V131Q286 106 285 86T276 51Q268 36 259 24T237 5T203 -7T152 -11Q100 -11 75
4T33 51Q26 65 25 85T23 131V200V202H98V172V172Z" />
<glyph unicode="K" glyph-name="K" horiz-adv-x="321" d="M126 408L114 383V-1H37V749H114V459L261 749H300L177 507L304 -1H227L126 408Z" />
<glyph unicode="L" glyph-name="L" horiz-adv-x="243" d="M27 747H105L106 40H228V0H28L27 747Z" />
<glyph unicode="M" glyph-name="M" horiz-adv-x="372" d="M27 750H103L184 253L266 748H343V-2H266V510L204 135H127L66 510V-1H27V750Z" />
<glyph unicode="N" glyph-name="N" horiz-adv-x="341" d="M306 747V0H268L78 536V0H39V747H78L267 216V747H306Z" />
<glyph unicode="O" glyph-name="O" horiz-adv-x="340" d="M291 669Q294 658 296 638T299 594T300 544T301 498V131Q301 106 300 86T291 51Q275 20 244 5T169 -11Q127 -11 96 4T48 51Q41 65 40 85T38 131V498Q38 518 38 543T40 593T43 638T48 669Q60 709 91 733T170
757Q215 757 247 733T291 669ZM113 633Q113 505 113 377T112 114Q112 94 113 78T121 50T138 32T169 25H170Q191 25 202 32T219 57T225 102T226 172V630Q226 671 217 696T170 721H169Q150 721 139 715T122 697T115 669T113 633Z" />
<glyph unicode="P" glyph-name="P" horiz-adv-x="316" d="M294 478Q294 381 176 381H105V0H28L29 748H174Q197 748 219 744T257 728T284 696T294 643V478ZM106 420H175Q191 420 200 429T213 449Q217 461 218 478V513Q218 529 218 550T219 595Q219 620 219 642T216
679T203 704T176 713H106V420Z" />
<glyph unicode="Q" glyph-name="Q" horiz-adv-x="365" d="M297 669Q300 658 302 638T305 594T306 544T307 498V131Q307 106 306 86T297 51Q288 34 274 21L354 25V-11H183H175Q133 -11 102 4T54 51Q47 65 46 85T44 131V498Q44 518 44 543T46 593T49 638T54 669Q66
709 97 733T176 757Q221 757 253 733T297 669ZM119 633Q119 505 119 377T118 114Q118 94 119 78T127 50T144 32T175 25H176Q197 25 208 32T225 57T231 102T232 172V630Q232 671 223 696T176 721H175Q156 721 145 715T128 697T121 669T119 633Z" />
<glyph unicode="R" glyph-name="R" horiz-adv-x="340" d="M298 478Q296 397 193 381Q197 367 204 344T221 291T240 229T260 164Q283 88 309 0H233L126 381H118V330V0H41L42 748H178Q196 748 217 744T256 728T286 696T298 643V478ZM119 420H179Q195 420 204 429T217
449Q221 461 222 478V513Q222 529 222 550T223 595Q223 620 223 642T220 679T207 704T180 713H119V420Z" />
<glyph unicode="S" glyph-name="S" horiz-adv-x="340" d="M227 644Q227 687 214 704T169 722Q138 722 126 704T113 644V546Q113 520 116 508T122 491Q134 475 145 461T167 433T192 402T221 367Q244 340 259 321T283 287T296 256T301 222T303 176T303 111Q303 75
293 52T266 15T224 -4T171 -9Q114 -9 77 20T39 106V223H114V108Q114 81 118 66T129 42T147 31T171 28Q185 28 196 30T214 41T224 66T228 108V224Q228 241 208 269T162 329T110 389T71 437Q65 446 59 453T49 474T41 509T38 569V645Q38 666 46 686T70 722T112 748T170
758Q234 758 268 732T303 644V564H227V644Z" />
<glyph unicode="T" glyph-name="T" horiz-adv-x="316" d="M24 747H290V708H195V0H118V708H24V747Z" />
<glyph unicode="U" glyph-name="U" horiz-adv-x="340" d="M115 172Q115 157 115 143T114 114Q114 94 115 78T123 50T140 32T171 25H172Q193 25 204 32T221 57T227 102T228 172V747H303V745V131Q303 106 302 86T293 51Q277 20 247 5T181 -11H161Q126 -11 96 4T50
51Q43 65 42 85T40 131V745V747H115V172V172Z" />
<glyph unicode="V" glyph-name="V" horiz-adv-x="340" d="M112 747L195 230L262 747H302L203 0H146L38 747H112Z" />
<glyph unicode="W" glyph-name="W" horiz-adv-x="423" d="M106 747L153 258L192 671H258L300 258L352 747H393L315 0H262L211 463L167 0H110L32 747H106Z" />
<glyph unicode="X" glyph-name="X" horiz-adv-x="340" d="M133 367L36 747H112L190 443L265 747H304L208 374L305 0H228L151 299L75 0H37L133 367Z" />
<glyph unicode="Y" glyph-name="Y" horiz-adv-x="319" d="M194 0H117V325L24 747H99L173 413L254 747H292L194 326V0Z" />
<glyph unicode="Z" glyph-name="Z" horiz-adv-x="340" d="M303 747L125 41H303V0H35L218 708H37V747H303Z" />
<glyph unicode="[" glyph-name="bracketleft" horiz-adv-x="229" d="M191 -153H40V747H191V708H97V-114H191V-153Z" />
<glyph unicode="\" glyph-name="backslash" horiz-adv-x="365" d="M298 -66H245L55 820H109L298 -66Z" />
<glyph unicode="]" glyph-name="bracketright" horiz-adv-x="231" d="M40 -114H134V708H40V747H191V-153H40V-114Z" />
<glyph unicode="^" glyph-name="asciicircum" horiz-adv-x="256" d="M144 750L227 646H179L127 707L76 646H28L112 750H144Z" />
<glyph unicode="_" glyph-name="underscore" horiz-adv-x="322" d="M296 1V-51H27V1H296Z" />
<glyph unicode="`" glyph-name="grave" horiz-adv-x="159" d="M84 889L127 785H91L26 889H84Z" />
<glyph unicode="a" glyph-name="a" horiz-adv-x="303" d="M194 748L287 -1H217L200 137H80L60 -1H19L102 748H194ZM132 636L82 176H194L139 636H132Z" />
<glyph unicode="b" glyph-name="b" horiz-adv-x="340" d="M39 -1V418H40V749H147Q184 749 212 743T258 722T286 682T295 618V540Q297 408 226 403Q241 401 255 395T280 376T298 341T305 282V129Q305 80 292 54T258 15T213 1T167 -1H39ZM116 383V34H168Q230 34
230 126L231 265Q231 286 231 307T225 345T207 372T169 383H116ZM159 421Q181 421 193 429T212 457T220 510T222 596Q222 621 221 643T215 680T198 705T165 714H117V421H159Z" />
<glyph unicode="c" glyph-name="c" horiz-adv-x="340" d="M224 643Q224 681 213 701T166 721Q133 721 122 702T111 643Q111 616 111 576T111 478T110 345T110 172Q110 142 110 115T113 68T128 37T166 25Q198 25 211 38T224 93V202H300V91Q300 74 292 56T268 23T227
-1T169 -11Q122 -11 93 6T48 54Q38 74 37 106T35 178V498Q35 518 35 544T34 596T35 643T40 676Q52 716 85 736T166 757Q200 757 225 747T267 721T292 685T300 643V563H224V643Z" />
<glyph unicode="d" glyph-name="d" horiz-adv-x="340" d="M36 -2V748H185Q203 748 224 743T262 725T290 693T302 645V128Q302 83 287 57T249 18T205 2T169 -2H36ZM113 713V33H170Q194 33 210 52T227 109V152Q227 169 227 205T227 285T227 378T228 470T228 547T228
595Q228 620 228 642T223 679T209 704T180 713H113Z" />
<glyph unicode="e" glyph-name="e" horiz-adv-x="247" d="M27 747H229V708H105V418H220V380H105L106 38H228V0H28L27 747Z" />
<glyph unicode="f" glyph-name="f" horiz-adv-x="262" d="M42 747H244V708H120V420H235V382H120Q122 279 122 186T121 0H43L42 747Z" />
<glyph unicode="g" glyph-name="g" horiz-adv-x="341" d="M160 420H305V103Q305 79 299 59T278 23T238 -2T173 -11Q141 -11 121 -7T88 4T66 24T50 51Q40 71 40 105T40 178V498Q40 518 40 543T42 593T45 638T50 669Q62 709 94 733T170 757Q204 757 229 748T272
724T297 688T305 643V563H230V642Q230 689 217 705T171 721Q147 721 135 711T119 682T114 640T115 587V172Q115 142 115 115T118 68T135 37T173 25Q205 25 217 38T229 93V382H160V420Z" />
<glyph unicode="h" glyph-name="h" horiz-adv-x="360" d="M127 747V419H238V747H315V0H238V381H127V0H50L49 747H127Z" />
<glyph unicode="i" glyph-name="i" horiz-adv-x="159" d="M41 748H118V-2H41V748Z" />
<glyph unicode="j" glyph-name="j" horiz-adv-x="338" d="M98 172Q98 157 98 143T97 114Q97 94 98 78T106 50T123 32T154 25H155Q176 25 187 32T204 57T210 102T211 172V747H286V745V131Q286 106 285 86T276 51Q268 36 259 24T237 5T203 -7T152 -11Q100 -11 75
4T33 51Q26 65 25 85T23 131V200V202H98V172V172Z" />
<glyph unicode="k" glyph-name="k" horiz-adv-x="321" d="M126 408L114 383V-1H37V749H114V459L261 749H300L177 507L304 -1H227L126 408Z" />
<glyph unicode="l" glyph-name="l" horiz-adv-x="243" d="M27 747H105L106 40H228V0H28L27 747Z" />
<glyph unicode="m" glyph-name="m" horiz-adv-x="372" d="M27 750H103L184 253L266 748H343V-2H266V510L204 135H127L66 510V-1H27V750Z" />
<glyph unicode="n" glyph-name="n" horiz-adv-x="341" d="M306 747V0H268L78 536V0H39V747H78L267 216V747H306Z" />
<glyph unicode="o" glyph-name="o" horiz-adv-x="340" d="M291 669Q294 658 296 638T299 594T300 544T301 498V131Q301 106 300 86T291 51Q275 20 244 5T169 -11Q127 -11 96 4T48 51Q41 65 40 85T38 131V498Q38 518 38 543T40 593T43 638T48 669Q60 709 91 733T170
757Q215 757 247 733T291 669ZM113 633Q113 505 113 377T112 114Q112 94 113 78T121 50T138 32T169 25H170Q191 25 202 32T219 57T225 102T226 172V630Q226 671 217 696T170 721H169Q150 721 139 715T122 697T115 669T113 633Z" />
<glyph unicode="p" glyph-name="p" horiz-adv-x="316" d="M294 478Q294 381 176 381H105V0H28L29 748H174Q197 748 219 744T257 728T284 696T294 643V478ZM106 420H175Q191 420 200 429T213 449Q217 461 218 478V513Q218 529 218 550T219 595Q219 620 219 642T216
679T203 704T176 713H106V420Z" />
<glyph unicode="q" glyph-name="q" horiz-adv-x="365" d="M297 669Q300 658 302 638T305 594T306 544T307 498V131Q307 106 306 86T297 51Q288 34 274 21L354 25V-11H183H175Q133 -11 102 4T54 51Q47 65 46 85T44 131V498Q44 518 44 543T46 593T49 638T54 669Q66
709 97 733T176 757Q221 757 253 733T297 669ZM119 633Q119 505 119 377T118 114Q118 94 119 78T127 50T144 32T175 25H176Q197 25 208 32T225 57T231 102T232 172V630Q232 671 223 696T176 721H175Q156 721 145 715T128 697T121 669T119 633Z" />
<glyph unicode="r" glyph-name="r" horiz-adv-x="340" d="M298 478Q296 397 193 381Q197 367 204 344T221 291T240 229T260 164Q283 88 309 0H233L126 381H118V330V0H41L42 748H178Q196 748 217 744T256 728T286 696T298 643V478ZM119 420H179Q195 420 204 429T217
449Q221 461 222 478V513Q222 529 222 550T223 595Q223 620 223 642T220 679T207 704T180 713H119V420Z" />
<glyph unicode="s" glyph-name="s" horiz-adv-x="340" d="M227 644Q227 687 214 704T169 722Q138 722 126 704T113 644V546Q113 520 116 508T122 491Q134 475 145 461T167 433T192 402T221 367Q244 340 259 321T283 287T296 256T301 222T303 176T303 111Q303 75
293 52T266 15T224 -4T171 -9Q114 -9 77 20T39 106V223H114V108Q114 81 118 66T129 42T147 31T171 28Q185 28 196 30T214 41T224 66T228 108V224Q228 241 208 269T162 329T110 389T71 437Q65 446 59 453T49 474T41 509T38 569V645Q38 666 46 686T70 722T112 748T170
758Q234 758 268 732T303 644V564H227V644Z" />
<glyph unicode="t" glyph-name="t" horiz-adv-x="316" d="M24 747H290V708H195V0H118V708H24V747Z" />
<glyph unicode="u" glyph-name="u" horiz-adv-x="340" d="M115 172Q115 157 115 143T114 114Q114 94 115 78T123 50T140 32T171 25H172Q193 25 204 32T221 57T227 102T228 172V747H303V745V131Q303 106 302 86T293 51Q277 20 247 5T181 -11H161Q126 -11 96 4T50
51Q43 65 42 85T40 131V745V747H115V172V172Z" />
<glyph unicode="v" glyph-name="v" horiz-adv-x="340" d="M112 747L195 230L262 747H302L203 0H146L38 747H112Z" />
<glyph unicode="w" glyph-name="w" horiz-adv-x="423" d="M106 747L153 258L192 671H258L300 258L352 747H393L315 0H262L211 463L167 0H110L32 747H106Z" />
<glyph unicode="x" glyph-name="x" horiz-adv-x="340" d="M133 367L36 747H112L190 443L265 747H304L208 374L305 0H228L151 299L75 0H37L133 367Z" />
<glyph unicode="y" glyph-name="y" horiz-adv-x="319" d="M194 0H117V325L24 747H99L173 413L254 747H292L194 326V0Z" />
<glyph unicode="z" glyph-name="z" horiz-adv-x="340" d="M303 747L125 41H303V0H35L218 708H37V747H303Z" />
<glyph unicode="|" glyph-name="bar" horiz-adv-x="120" d="M31 796H83V-51H31V796Z" />
</font>
</defs>
</svg>
